<svg width="234" height="94" viewBox="0 0 234 94" fill="none" xmlns="http://www.w3.org/2000/svg">
<g clip-path="url(#clip0_57_4)">
<path d="M62.3001 0.490906H48.7043C48.7043 0.490906 50.2155 23.296 46.4398 26.1441C46.4398 26.1441 42.8915 32.7004 38.4963 26.1441C34.101 19.5878 35.7905 0.490906 35.7905 0.490906H26.5899C26.5899 0.490906 28.2793 19.5918 23.8841 26.1441C19.4889 32.6964 15.9406 26.1441 15.9406 26.1441C12.1694 23.2919 13.6805 0.490906 13.6805 0.490906H0.0846968C-1.12778 40.9729 11.211 39.4352 19.8321 38.6644C25.9257 38.352 29.3403 33.8364 31.1902 28.0144C33.0446 33.8364 36.4591 38.352 42.5483 38.6644C51.1694 39.4352 63.5082 40.9729 62.2957 0.490906H62.3001Z" fill="#242424"/>
<path d="M104.229 0.247483C104.229 0.247483 65.523 -2.21114 64.3418 19.7866L104.229 18.8616V0.247483Z" fill="#242424"/>
<path d="M104.131 0.162292H112.097V39.2446H104.131" fill="#242424"/>
<path d="M104.229 39.1594C104.229 39.1594 65.523 41.618 64.3418 19.6203L104.229 20.5453V39.1634V39.1594Z" fill="#242424"/>
<path d="M116.162 0.247482H124.123V39.3257H116.162" fill="#242424"/>
<path d="M200.866 0.247482H208.832V39.3257H200.866" fill="#242424"/>
<path d="M128.367 0.247482H136.333V39.3257H128.367" fill="#242424"/>
<path d="M134.256 19.5391C134.256 19.5391 172.961 17.048 174.143 39.3257H134.256V19.5391Z" fill="#242424"/>
<path d="M134.001 20.1152C134.001 20.1152 172.707 22.6144 173.889 0.247482H134.001V20.1152Z" fill="#242424"/>
<path d="M204.851 0.247485H234.004C234.004 13.7171 220.845 24.8012 204.851 24.8012C188.857 24.8012 175.698 13.7171 175.698 0.247485C175.698 0.166342 175.698 0.0811425 175.698 0L204.847 0.247485H204.851Z" fill="#242424"/>
</g>
<path d="M33.3135 76.768H34.6415V84.176H33.3135V76.768ZM30.1775 80.24H33.5215V81.328H30.1775V80.24ZM28.6735 77.472H30.0655C30.0655 78.6773 29.7988 79.744 29.2655 80.672C28.7322 81.5893 27.9695 82.368 26.9775 83.008C25.9962 83.648 24.8122 84.144 23.4255 84.496L22.9615 83.424C24.1775 83.1147 25.2068 82.704 26.0495 82.192C26.9028 81.68 27.5535 81.0773 28.0015 80.384C28.4495 79.6907 28.6735 78.9227 28.6735 78.08V77.472ZM23.7135 77.472H29.7455V78.56H23.7135V77.472ZM25.3295 84.816H34.6415V88.368H26.6735V90.672H25.3615V87.36H33.3135V85.888H25.3295V84.816ZM25.3615 90.032H35.1215V91.104H25.3615V90.032ZM43.9843 77.088C45.0296 77.088 45.9309 77.2 46.6883 77.424C47.4563 77.6373 48.0429 77.9467 48.4483 78.352C48.8643 78.7573 49.0723 79.2533 49.0723 79.84C49.0723 80.4053 48.8643 80.896 48.4483 81.312C48.0429 81.7173 47.4563 82.0267 46.6883 82.24C45.9309 82.4533 45.0296 82.56 43.9843 82.56C42.9496 82.56 42.0483 82.4533 41.2803 82.24C40.5229 82.0267 39.9363 81.7173 39.5203 81.312C39.1043 80.896 38.8963 80.4053 38.8963 79.84C38.8963 79.2533 39.1043 78.7573 39.5203 78.352C39.9363 77.9467 40.5229 77.6373 41.2803 77.424C42.0483 77.2 42.9496 77.088 43.9843 77.088ZM43.9843 78.144C43.2269 78.144 42.5656 78.2133 42.0003 78.352C41.4456 78.48 41.0136 78.672 40.7043 78.928C40.4056 79.1733 40.2563 79.4773 40.2563 79.84C40.2563 80.1813 40.4056 80.48 40.7043 80.736C41.0136 80.9813 41.4456 81.1733 42.0003 81.312C42.5656 81.44 43.2269 81.504 43.9843 81.504C44.7523 81.504 45.4136 81.44 45.9683 81.312C46.5336 81.1733 46.9656 80.9813 47.2643 80.736C47.5629 80.48 47.7123 80.1813 47.7123 79.84C47.7123 79.4773 47.5629 79.1733 47.2643 78.928C46.9656 78.672 46.5336 78.48 45.9683 78.352C45.4136 78.2133 44.7523 78.144 43.9843 78.144ZM39.0563 86.288H48.9283V91.056H39.0563V86.288ZM47.6323 87.36H40.3523V89.968H47.6323V87.36ZM37.4563 83.792H50.5283V84.88H37.4563V83.792ZM52.751 78.224H59.391V87.568H52.751V78.224ZM58.079 79.28H54.047V86.496H58.079V79.28ZM61.967 76.768H63.295V91.248H61.967V76.768ZM62.991 82.544H65.663V83.664H62.991V82.544ZM76.6858 76.768H78.0138V91.264H76.6858V76.768ZM77.7098 82.48H80.3818V83.584H77.7098V82.48ZM67.5178 86.528H68.6538C69.5391 86.528 70.3498 86.5173 71.0858 86.496C71.8324 86.464 72.5471 86.4107 73.2298 86.336C73.9231 86.2613 74.6271 86.16 75.3418 86.032L75.5017 87.168C74.7551 87.296 74.0298 87.3973 73.3258 87.472C72.6324 87.5467 71.9071 87.5947 71.1498 87.616C70.3924 87.6373 69.5604 87.648 68.6538 87.648H67.5178V86.528ZM67.5178 78.176H74.2218V79.264H68.8298V87.04H67.5178V78.176ZM96.0165 76.768H97.3445V84.96H96.0165V76.768ZM96.9765 80.304H99.4725V81.408H96.9765V80.304ZM86.7845 83.056H87.9045C88.8965 83.056 89.7658 83.0453 90.5125 83.024C91.2592 82.992 91.9472 82.944 92.5765 82.88C93.2058 82.8053 93.8405 82.704 94.4805 82.576L94.6405 83.648C93.9685 83.7867 93.3072 83.8933 92.6565 83.968C92.0165 84.0427 91.3178 84.0907 90.5605 84.112C89.8032 84.1333 88.9178 84.144 87.9045 84.144H86.7845V83.056ZM86.7845 77.744H93.1365V78.816H88.0965V83.68H86.7845V77.744ZM88.2565 85.728H97.3445V91.04H88.2565V85.728ZM96.0325 86.8H89.5525V89.968H96.0325V86.8ZM111.375 76.768H112.703V91.248H111.375V76.768ZM107.135 78.336H108.447C108.447 79.3813 108.319 80.3893 108.063 81.36C107.818 82.3307 107.429 83.2533 106.895 84.128C106.362 84.992 105.669 85.7973 104.815 86.544C103.962 87.2907 102.927 87.9573 101.711 88.544L101.007 87.472C102.405 86.8 103.557 86.016 104.463 85.12C105.37 84.224 106.042 83.2267 106.479 82.128C106.917 81.0187 107.135 79.824 107.135 78.544V78.336ZM101.679 78.336H107.695V79.408H101.679V78.336ZM117.31 81.12H127.15V82.192H117.31V81.12ZM115.534 84.128H128.654V85.216H115.534V84.128ZM117.31 77.296H118.622V81.664H117.31V77.296ZM117.214 89.808H127.23V90.896H117.214V89.808ZM117.214 86.672H118.542V90.096H117.214V86.672ZM145.537 82.544H148.193V83.648H145.537V82.544ZM144.561 76.768H145.889V91.232H144.561V76.768ZM135.345 78.192H136.657V87.152H135.345V78.192ZM135.345 86.464H136.497C137.553 86.464 138.635 86.416 139.745 86.32C140.865 86.224 142.022 86.0533 143.217 85.808L143.377 86.928C142.139 87.1733 140.955 87.344 139.825 87.44C138.705 87.5253 137.595 87.568 136.497 87.568H135.345V86.464ZM154.176 77.824C154.933 77.824 155.6 77.968 156.176 78.256C156.762 78.5333 157.221 78.928 157.552 79.44C157.882 79.952 158.048 80.5493 158.048 81.232C158.048 81.904 157.882 82.5013 157.552 83.024C157.221 83.536 156.762 83.936 156.176 84.224C155.6 84.5013 154.933 84.64 154.176 84.64C153.429 84.64 152.762 84.5013 152.176 84.224C151.589 83.936 151.125 83.536 150.784 83.024C150.453 82.5013 150.288 81.904 150.288 81.232C150.288 80.5493 150.453 79.952 150.784 79.44C151.125 78.928 151.589 78.5333 152.176 78.256C152.762 77.968 153.429 77.824 154.176 77.824ZM154.176 78.976C153.685 78.976 153.242 79.072 152.848 79.264C152.464 79.4453 152.16 79.7067 151.936 80.048C151.712 80.3893 151.6 80.784 151.6 81.232C151.6 81.68 151.712 82.0747 151.936 82.416C152.16 82.7573 152.464 83.024 152.848 83.216C153.242 83.3973 153.685 83.488 154.176 83.488C154.677 83.488 155.12 83.3973 155.504 83.216C155.888 83.024 156.192 82.7573 156.416 82.416C156.64 82.0747 156.752 81.68 156.752 81.232C156.752 80.784 156.64 80.3893 156.416 80.048C156.192 79.7067 155.888 79.4453 155.504 79.264C155.12 79.072 154.677 78.976 154.176 78.976ZM159.952 76.768H161.28V91.264H159.952V76.768ZM149.743 88.096L149.568 86.976C150.453 86.976 151.424 86.9707 152.48 86.96C153.536 86.9387 154.624 86.896 155.744 86.832C156.874 86.7573 157.962 86.64 159.008 86.48L159.12 87.456C158.032 87.6587 156.928 87.808 155.808 87.904C154.698 87.9893 153.626 88.0427 152.592 88.064C151.557 88.0853 150.607 88.096 149.743 88.096ZM179.218 76.768H180.546V91.264H179.218V76.768ZM172.914 77.888C173.629 77.888 174.258 78.096 174.802 78.512C175.357 78.9173 175.789 79.4987 176.098 80.256C176.418 81.0133 176.578 81.904 176.578 82.928C176.578 83.952 176.418 84.8427 176.098 85.6C175.789 86.3573 175.357 86.944 174.802 87.36C174.258 87.776 173.629 87.984 172.914 87.984C172.2 87.984 171.565 87.776 171.01 87.36C170.456 86.944 170.018 86.3573 169.698 85.6C169.389 84.8427 169.234 83.952 169.234 82.928C169.234 81.904 169.389 81.0133 169.698 80.256C170.018 79.4987 170.456 78.9173 171.01 78.512C171.565 78.096 172.2 77.888 172.914 77.888ZM172.914 79.072C172.434 79.072 172.013 79.232 171.65 79.552C171.298 79.8613 171.021 80.3093 170.818 80.896C170.616 81.472 170.514 82.1493 170.514 82.928C170.514 83.7067 170.616 84.3893 170.818 84.976C171.021 85.552 171.298 86 171.65 86.32C172.013 86.64 172.434 86.8 172.914 86.8C173.384 86.8 173.794 86.64 174.146 86.32C174.509 86 174.792 85.552 174.994 84.976C175.197 84.3893 175.298 83.7067 175.298 82.928C175.298 82.1493 175.197 81.472 174.994 80.896C174.792 80.3093 174.509 79.8613 174.146 79.552C173.794 79.232 173.384 79.072 172.914 79.072ZM187.265 77.888C187.98 77.888 188.609 78.096 189.153 78.512C189.697 78.9173 190.124 79.4987 190.433 80.256C190.742 81.0133 190.897 81.904 190.897 82.928C190.897 83.952 190.742 84.8427 190.433 85.6C190.124 86.3573 189.697 86.944 189.153 87.36C188.609 87.776 187.98 87.984 187.265 87.984C186.561 87.984 185.932 87.776 185.377 87.36C184.833 86.944 184.406 86.3573 184.097 85.6C183.788 84.8427 183.633 83.952 183.633 82.928C183.633 81.904 183.788 81.0133 184.097 80.256C184.406 79.4987 184.833 78.9173 185.377 78.512C185.932 78.096 186.561 77.888 187.265 77.888ZM187.265 79.072C186.806 79.072 186.396 79.232 186.033 79.552C185.681 79.8613 185.404 80.3093 185.201 80.896C184.998 81.472 184.897 82.1493 184.897 82.928C184.897 83.7067 184.998 84.3893 185.201 84.976C185.404 85.552 185.681 86 186.033 86.32C186.396 86.64 186.812 86.8 187.281 86.8C187.74 86.8 188.145 86.64 188.497 86.32C188.86 86 189.137 85.552 189.329 84.976C189.532 84.3893 189.633 83.7067 189.633 82.928C189.633 82.1493 189.532 81.472 189.329 80.896C189.137 80.3093 188.86 79.8613 188.497 79.552C188.145 79.232 187.734 79.072 187.265 79.072ZM194.177 80.4H196.849V81.52H194.177V80.4ZM194.177 84.72H196.849V85.824H194.177V84.72ZM193.217 76.768H194.545V91.248H193.217V76.768ZM208.688 76.768H210.016V91.248H208.688V76.768ZM204.448 78.336H205.76C205.76 79.3813 205.632 80.3893 205.376 81.36C205.13 82.3307 204.741 83.2533 204.208 84.128C203.674 84.992 202.981 85.7973 202.128 86.544C201.274 87.2907 200.24 87.9573 199.024 88.544L198.32 87.472C199.717 86.8 200.869 86.016 201.776 85.12C202.682 84.224 203.354 83.2267 203.792 82.128C204.229 81.0187 204.448 79.824 204.448 78.544V78.336ZM198.992 78.336H205.008V79.408H198.992V78.336Z" fill="black"/>
<defs>
<clipPath id="clip0_57_4">
<rect width="234" height="75" fill="white"/>
</clipPath>
</defs>
</svg>
